<svg xmlns="http://www.w3.org/2000/svg" width="513" height="513" fill="none">
  <g clip-path="url(#a)">
    <path fill="#C2B6FF" d="M191.2 334.5c.4-2.8.4-5.6.4-8.4 0-12.9-4.4-24.9-11.6-34.1a71.6 71.6 0 0 0 40 17.6l1.6.4c2.8 2 6.4 5.2 10.4 8.4l34.8 72.2c1.2 4.4 1.2 8 1.6 10.8 0 0 0-1.6.8-4l1.6 4 9.2-39.3a135 135 0 0 1 9.6-20 72.8 72.8 0 0 0 42.4 29.3c-.8 2-1.2 4.8-2 6.4-28.4 40-26.4 124.2-26.4 124.2h-72.8s4.4-87-12.4-110.2v-.4c-4.8-14-11.2-26.9-20.4-38l-6.8-19Z"/>
    <path fill="#9585E5" d="M467.6 234.2a78.1 78.1 0 0 0 20.8-51.6 73 73 0 0 0-101.6-66.9A80 80 0 0 0 242.1 50a75.5 75.5 0 0 0-58.8-28c-41.2 0-72 32.8-76 73.7-24 7.2-48 32-48 62a61 61 0 0 0 6.9 28.5 72.2 72.2 0 0 0 9.2 143.7c1.6 0 4 0 4-.4 4 29.3 26.4 52.5 56 52.5a55.6 55.6 0 0 0 55.1-47.7v-.4c.4-2.8.4-5.6.4-8 0-12.8-4.4-24.8-11.6-34a71.6 71.6 0 0 0 40 17.6c2.4.4 4.4 1.2 6.8 1.2l.8 3.2a73 73 0 0 0 48.4-20.4c-.4 2.4-.4 2.8-.4 5.2 0 14 4 28 10.4 39.3l2.4 1.6-2.4-1.6c1.2 2 2.4 2.8 3.6 4.8 7.6 10.8 22.8 20.4 37.6 26l4.8 3.6c.4 0 .8-.8 1.2-.8l6 1.2h.8a76.2 76.2 0 0 0 69.2-25.6h.3a64.2 64.2 0 0 0 99.2-53.3 62.8 62.8 0 0 0-40.4-59.7Z"/>
    <path fill="#504685" d="M136 387c-29.2 0-53.6-21.6-59.2-52H76a76 76 0 0 1-14.4-150.6c-3.2-8-4.8-16.8-4.8-25.6 0-31.7 24.4-56.9 48.4-65C110.4 50.3 143.7 19 185 19c22 0 43.2 9.2 58 25.2a83.9 83.9 0 0 1 151.3 66.1A76.8 76.8 0 0 1 475 234a67.7 67.7 0 0 1 38 61.3 68.3 68.3 0 0 1-102.8 58.5 79.7 79.7 0 0 1-77.7 23.2c-.4 0-.8 0-1.6-.4a79.3 79.3 0 0 1-44.4-30.8l-.8-.8a77.9 77.9 0 0 1-14.4-43.2c-10.4 8-26 16.7-44.4 16.7-2 0-3.6-.4-5.2-.4-.8 0-1.6-.4-2.4-.4-8.8-.8-18-4.4-27.2-10a54.6 54.6 0 0 1 2.4 28.4c-.4 3.3-1.2 6.5-2.4 9.7a58.1 58.1 0 0 1-56 41.2Zm-52-56.5c4 28.5 25.2 48.5 52 48.5a52 52 0 0 0 51.7-44.5c.4-2.4.4-5.2.4-7.6 0-11.6-3.6-22.4-10.8-31.6-1.2-1.6-1.2-4 .4-5.2 1.6-1.6 4-1.6 5.2 0 13.2 11.6 26 18.4 38 19.6.8 0 2 .4 2.8.4 1.6.4 2.8.4 4 .4 20.8 0 37.6-12.8 46-20.4 1.2-1.2 3.2-1.2 4.4-.8 1.6.8 2.4 2.4 2.4 4v6.4a68 68 0 0 0 12.8 40l.8.9a70.4 70.4 0 0 0 40 27.6h.8a71.6 71.6 0 0 0 72-23.2c1.3-1.6 3.7-2 5.3-.8a60.3 60.3 0 0 0 93.2-50 59.1 59.1 0 0 0-38-56.2c-1.6-.4-2.4-2-2.4-3.6 0-.8.4-2 1.2-2.8 12.8-14 20-31.6 20-49.2a68.8 68.8 0 0 0-95.6-63.3c-1.6.8-3.2.4-4.4-.8-1.3-1.2-1.6-2.8-1.3-4.4a76 76 0 0 0-137.7-62.5c-.7 1.2-1.9 2-3.1 2-1.2 0-2.4-.4-3.6-1.6a71.4 71.4 0 0 0-55.6-26.4c-37.6 0-68 29.7-72 70a4 4 0 0 1-2.9 3.7c-22 6.8-45.2 30-45.2 58 0 9.3 2 18.5 6.4 26.9.4 1.2.4 2.4 0 3.6-.4 1.2-1.6 2-3.2 2a68.3 68.3 0 0 0 8.4 135.7h3.2c1.6.8 4.4 2.8 4.4 5.2Z"/>
    <path fill="#504685" d="M105.2 196c-.4 0-1.2 0-1.6-.4a67.8 67.8 0 0 0-28-5.8c-3.1 0-5.5 0-8.2.4-2 .4-4-1.2-4.3-3.5-.4-2 1.1-4 3.5-4.3 2.8-.4 5.9-.4 9-.4 11 0 21.3 2.3 31.1 6.6 2 .8 2.8 3.1 2 5-.8 1.6-2 2.4-3.5 2.4ZM80 334c-2 0-4-1.6-4-3.6 0-2.4 1.6-4 3.6-4.4a69.2 69.2 0 0 0 35.1-12.3 4.3 4.3 0 0 1 5.6.8c1.2 1.6.8 4.4-.8 5.6A81.4 81.4 0 0 1 80 334s.4 0 0 0Zm196-39c-2.4-.4-4-2-4-4.3a78.3 78.3 0 0 1 23.2-48.5 4 4 0 0 1 5.6 0c1.6 1.6 1.6 4 0 5.5a70.6 70.6 0 0 0-20.8 43.8c0 2-2 3.5-4 3.5Zm-96 1c-.9 0-2.1-.4-3-1.2l-.3-.4c-.4-.4-1.3-.8-1.7-1.6a74.8 74.8 0 0 1-20.3-78c.8-2 2.8-3.1 5.3-2.7 2 .8 3.2 2.8 2.8 5.2a67 67 0 0 0 18.3 69.9l1.3 1.2.4.4c1.6 1.6 1.6 4 0 5.6-.8 1.2-1.7 1.6-2.9 1.6Zm-21.3-188a3 3 0 0 1-2-.8 59.6 59.6 0 0 0-47.8-7.5c-2 .4-4.4-.8-4.8-2.8-.4-2 .8-4.3 2.8-4.7a68.8 68.8 0 0 1 54.2 8.7c2 1.2 2.4 3.5 1.2 5.5a5 5 0 0 1-3.6 1.6Zm250.5 244a3 3 0 0 1-2-.8 75.8 75.8 0 0 1-17.5-16.7c-1.2-1.6-.8-4.5.8-5.8 1.6-1.2 4.4-.8 5.5.9a75 75 0 0 0 15.1 15c2 1.2 2.4 3.7 1.2 5.7-.4.9-1.6 1.7-3.1 1.7Zm57.6-113c-.4 0-.8 0-1.2-.4a56.4 56.4 0 0 0-20.6-4c-2.4 0-4-1.7-4-4.3 0-2.6 1.6-4.3 4-4.3a62 62 0 0 1 23.4 4.8c2 .8 3.1 3.4 2.4 5.6-1.2 1.7-2.4 2.6-4 2.6ZM254.3 76c-1.5 0-3-.8-3.4-2.5a81.9 81.9 0 0 0-11-20.8c-1.2-1.7-1.2-4.6.3-5.8 1.5-1.3 4.2-1.3 5.3.4 5.4 7 9.2 14.6 12.3 22.9.7 2-.4 4.6-2.3 5.4-.4 0-.8.4-1.2.4Zm57.7 98c-2.4 0-4-1.6-4-4 0-2.5 1.6-4.1 4-4.1 32 0 61-21 71.2-52.2.8-2 2.8-3.3 5.2-2.4a4 4 0 0 1 2.4 5.2A83.8 83.8 0 0 1 312 174Zm-126 29c-1.3 0-2.5-.4-3.3-1.6a60.1 60.1 0 0 1 70.6-91.4c2 .8 3.3 3.2 2.4 5.2-.8 2-3.2 3.2-5.2 2.4a52 52 0 0 0-61.3 79c1.2 1.6.8 4.4-.8 5.6-.9.8-1.7.8-2.5.8Zm117.3 303h-72.5c-2.4 0-4-1.6-4-4 0-46.3-2-78.6-12-108.1l-.3-1.2v-.4a115.3 115.3 0 0 0-28.3-45.5 3.9 3.9 0 0 1 0-5.6c1.6-1.6 4-1.6 5.6 0a112 112 0 0 1 9.5 10.4 134 134 0 0 1 21.1 38.7c0 .4.4.8.4 1.2v.4c10 29.5 12.4 61.4 12.4 106.1h64.5c0-17.5 1.6-86.2 27-122l1.2-1.7c.8-.8 1.2-2 2-2.8 1.2-1.6 4-2 5.6-.8 1.6 1.2 2 4 .8 5.6-.4.4-.8 1.2-1.6 2l-1.2 2C306 418.6 308 500.8 308 501.6c0 1.2-.4 2-1.2 2.8-1.6 1.2-2.3 1.6-3.5 1.6Z"/>
    <path fill="#504685" d="M268.6 406c-2 0-3.5-1.6-4-3.6l-.3-2.4c-.4-2.4-.4-4.8-1.2-8-6.4-21.9-18.8-53.4-33.9-70.2-3.2-2.8-7.2-4-10.3-5.1-2-.8-3.2-2.8-2.8-4.8.8-2 2.8-3.2 4.8-2.8a49 49 0 0 1 14.7 7.6C249.9 333 262.3 362 269 384a513 513 0 0 1 7.6-23.2c2.8-7.5 6.4-14 10-20 1.2-2 3.5-2.3 5.5-1.1 2 1.2 2.4 3.6 1.2 5.6a87.5 87.5 0 0 0-9.1 18.3c-5.6 14-9.6 30-11.2 34.7-.4 2-.4 2.8-.4 2.8 0 2.8-1.6 4.8-4 4.8.4 0 .4 0 0 0Z"/>
  </g>
  <defs>
    <clipPath id="a">
      <path fill="#fff" d="M0 0h512.8v512.8H0z"/>
    </clipPath>
  </defs>
</svg>
